<svg xmlns="http://www.w3.org/2000/svg">
  <symbol id="icon-magnifying-glass" viewBox="0 0 1024 1024">
    <title>Search Site</title>
    <path d="M898.304 791.91l-193.485-193.485c29.184-47.872 45.978-104.192 45.978-164.352 0-174.95-151.603-326.502-326.554-326.502-174.95-0.051-316.723 141.773-316.723 316.723 0 174.899 151.603 326.502 326.502 326.502 58.214 0 112.64-15.821 159.488-43.213l194.509 194.611c19.046 18.995 49.92 18.995 68.915 0l48.282-48.282c18.995-18.995 12.083-43.008-6.912-62.003zM205.005 424.294c0-121.139 98.15-219.29 219.238-219.29 121.139 0 229.069 107.878 229.069 229.069 0 121.088-98.202 219.29-219.29 219.29-121.139-0.051-229.018-107.981-229.018-229.069z"></path>
  </symbol>
  <symbol id="icon-close" viewBox="0 0 24 24">
    <title>Close</title>
    <line x1="4" y1="4"
          x2="20" y2="20"
          stroke-width="4"/>
    <line x1="20" y1="4"
          x2="4" y2="20"
          stroke-width="4"/>
  </symbol>
  <symbol id="icon-close-circled" viewBox="0 0 24 24">
    <title>Close</title>
    <circle cx="12" cy="12" r="12"/>
    <line x1="7" y1="7"
          x2="17" y2="17"
          stroke-width="3"/>
    <line x1="17" y1="7"
          x2="7" y2="17"
          stroke-width="3"/>
  </symbol>
  <symbol id="icon-play-circle" viewBox="0 0 1024 1024">
    <title>play-circle</title>
    <path class="path1" d="M438.857 73.143q119.429 0 220.286 58.857t159.714 159.714 58.857 220.286-58.857 220.286-159.714 159.714-220.286 58.857-220.286-58.857-159.714-159.714-58.857-220.286 58.857-220.286 159.714-159.714 220.286-58.857zM658.286 543.429q18.286-10.286 18.286-31.429t-18.286-31.429l-310.857-182.857q-17.714-10.857-36.571-0.571-18.286 10.857-18.286 32v365.714q0 21.143 18.286 32 9.143 4.571 18.286 4.571 9.714 0 18.286-5.143z"></path>
  </symbol>
  <symbol id="icon-hamburger" viewBox="0 0 22 16">
    <title>Menu</title>
    <rect width="22" height="3" rx="2" ry="2"/>
    <rect width="22" height="3" rx="2" ry="2" y="6"/>
    <rect width="22" height="3" rx="2" ry="2" y="12"/>
  </symbol>
  <symbol id="icon-arrow-left" viewBox="0 0 1024 1024">
  	<title>arrow-left</title>
  	<path class="path1" d="M585.574 231.219c-21.402 20.89-230.502 240.435-230.502 240.435-11.418 11.162-17.101 25.754-17.101 40.346s5.683 29.184 17.101 40.346c0 0 209.101 219.546 230.502 240.384 21.402 20.89 59.904 22.323 82.739 0 22.784-22.272 24.576-53.35-0.051-80.64l-191.846-200.090 191.846-200.090c24.627-27.341 22.835-58.419 0.051-80.691-22.886-22.272-61.389-20.89-82.739 0z"></path>
  </symbol>
  <symbol id="icon-arrow-right" viewBox="0 0 1024 1024">
  	<title>arrow-right</title>
  	<path class="path1" d="M438.426 231.219c21.402 20.89 230.502 240.435 230.502 240.435 11.469 11.162 17.152 25.754 17.152 40.346s-5.683 29.184-17.152 40.346c0 0-209.101 219.546-230.502 240.384-21.402 20.89-59.853 22.323-82.739 0-22.835-22.272-24.627-53.35 0-80.64l191.898-200.090-191.846-200.090c-24.627-27.341-22.835-58.419 0-80.691s61.338-20.89 82.688 0z"></path>
  </symbol>
  <symbol id="icon-arrow-left-block" viewBox="0 0 148 232">
    <title>arrow-left</title>
    <path d="M132,16 L32,116 L132,216" stroke-width="44"></path>
  </symbol>
  <symbol id="icon-arrow-right-block" viewBox="0 0 148 232">
    <title>arrow-right</title>
    <path d="M16,16 L116,116 L16,216" stroke-width="44"></path>
  </symbol>
  <symbol id="icon-download" viewBox="0 0 1024 1024">
	 <title>download</title>
	 <path class="path1" d="M990.208 693.453l-163.021-109.67h-100.506l174.080 133.53h-181.504c-5.222 0-9.882 2.662-12.288 6.81l-41.779 114.432h-306.381l-41.83-114.432c-2.304-4.147-7.066-6.81-12.288-6.81h-181.453l174.131-133.53h-100.557l-162.97 109.67c-24.269 14.49-38.758 47.923-32.256 74.189l28.723 157.389c6.502 26.317 35.379 47.872 64.051 47.872h835.226c28.774 0 57.6-21.555 64.102-47.872l28.723-157.389c6.605-26.317-7.936-59.699-32.205-74.189zM778.291 364.646h-169.011v-262.144h-194.56v262.144h-168.96l266.24 249.856 266.291-249.856z"></path>
  </symbol>
  <symbol id="icon-filter-list" viewBox="0 0 1024 1024">
  	<title>filter-list</title>
  	<path class="path1" d="M426.667 768h170.667v-85.333h-170.667v85.333zM128 256v85.333h768v-85.333h-768zM256 554.667h512v-85.333h-512v85.333z"></path>
  </symbol>
  <symbol id="twit-logo" viewBox="0 0 161 82">
    <g>
      <g>
        <polygon fill="#010101" points="124,30 121.7,45.3 121.5,45.3 118.9,30 112.7,30 110.1,45.3 109.9,45.3 106.9,30 82,30 82,35.6
          88.6,35.6 88.6,54.7 94.9,54.7 94.9,35.6 101.7,35.6 105.8,54.7 112.6,54.7 115.7,41.7 115.8,41.7 118.8,54.7 125.5,54.7
          130.4,30    "/>
        <path fill="#010101" d="M132.6,54.7V35.6h6.2v19.2H132.6z"/>
        <path fill="#010101" d="M160.9,30v5.6h-6.8v19.2h-6.4V35.6h-6.6V30H160.9z"/>
      </g>
      <path fill="#D22027" d="M135.7,27.2c2,0,3.3,1.4,3.3,3.1c0,1.8-1.3,3.1-3.3,3.1c-2,0-3.3-1.3-3.3-3.1
        C132.4,28.5,133.7,27.2,135.7,27.2z"/>
    </g>
    <circle fill="#F5F1E9" cx="41" cy="41" r="41"/>
    <circle fill="#52B2E4" cx="41" cy="41.1" r="34.8"/>
    <path fill="#D22027" d="M48,30c-1.7,0-3.1,1.4-3.1,3.1c0,1.7,1.4,3.1,3.1,3.1c1.7,0,3.1-1.4,3.1-3.1C51.1,31.4,49.7,30,48,30z"/>
    <path fill="#06060B" d="M68.3,42.8C68.3,28,56.3,16,41.5,16c-14.8,0-26.8,12-26.8,26.8c0,0.9,0,1.7,0.1,2.6h16.8v15h6.2v-15h7v15
      h6.3v-15h17C68.2,44.5,68.3,43.7,68.3,42.8z M37.9,39.1v-8.5h-6.2v8.5H21.5c1.7-9.5,10-16.7,20-16.7c10,0,18.3,7.2,20,16.7H37.9z"/>
  </symbol>
  <symbol id="icon-chat" viewBox="0 0 1152 1024">
    <title>chat</title>
    <path class="path1" d="M1088 901.166c0 45.5 26.028 84.908 64 104.184v15.938c-10.626 1.454-21.472 2.224-32.5 2.224-68.008 0-129.348-28.528-172.722-74.264-26.222 6.982-54.002 10.752-82.778 10.752-159.058 0-288-114.616-288-256s128.942-256 288-256c159.058 0 288 114.616 288 256 0 55.348-19.764 106.592-53.356 148.466-6.824 14.824-10.644 31.312-10.644 48.7zM512 0c278.458 0 504.992 180.614 511.836 405.52-49.182-21.92-103.586-33.52-159.836-33.52-95.56 0-185.816 33.446-254.138 94.178-70.846 62.972-109.862 147.434-109.862 237.822 0 44.672 9.544 87.888 27.736 127.788-5.228 0.126-10.468 0.212-15.736 0.212-27.156 0-53.81-1.734-79.824-5.044-109.978 109.978-241.25 129.7-368.176 132.596v-26.916c68.536-33.578 128-94.74 128-164.636 0-9.754-0.758-19.33-2.164-28.696-115.796-76.264-189.836-192.754-189.836-323.304 0-229.75 229.23-416 512-416z"></path>
  </symbol>
  <symbol id="icon-keyboard-arrow-down" viewBox="0 0 1024 1024">
  	<title>keyboard-arrow-down</title>
  	<path class="path1" d="M316.373 350.293l195.627 195.627 195.627-195.627 60.373 60.373-256 256-256-256z"></path>
  </symbol>
  <symbol id="icon-new-tab" viewBox="0 0 1024 1024">
    <title>new-tab</title>
    <path class="path1" d="M192 64v768h768v-768h-768zM896 768h-640v-640h640v640zM128 896v-672l-64-64v800h800l-64-64h-672z"></path>
    <path class="path2" d="M352 256l160 160-192 192 96 96 192-192 160 160v-416z"></path>
  </symbol>
  <symbol id="icon-download" viewBox="0 0 1024 1024">
    <title>download</title>
    <path class="path1" d="M832 64h-640l-192 192v672c0 17.674 14.326 32 32 32h960c17.672 0 32-14.326 32-32v-672l-192-192zM512 832l-320-256h192v-192h256v192h192l-320 256zM154.51 192l64-64h586.978l64 64h-714.978z"></path>
  </symbol>
  <symbol id="icon-audio" viewBox="0 0 1024 1024">
    <title>audio</title>
    <path class="path1" d="M768 1024v0c-17.696 0-32-14.304-32-32l-320-288h-160c-17.664 0-32-14.304-32-32v-256c0-17.696 14.336-32 32-32h160l320-352c0-17.696 14.304-32 32-32v0c17.696 0 32 14.304 32 32v960c0 17.696-14.304 32-32 32z"></path>
  </symbol>
  <symbol id="icon-video" viewBox="0 0 1024 1024">
    <title>video</title>
    <path class="path1" d="M1013.76 256v-61.44c0-22.63-18.381-40.96-40.96-40.96h-921.6c-22.63 0-40.96 18.33-40.96 40.96v61.44h102.4v102.4h-102.4v102.4h102.4v102.4h-102.4v102.4h102.4v102.4h-102.4v61.44c0 22.63 18.33 40.96 40.96 40.96h921.6c22.579 0 40.96-18.33 40.96-40.96v-61.44h-102.4v-102.4h102.4v-102.4h-102.4v-102.4h102.4v-102.4h-102.4v-102.4h102.4zM399.36 665.6v-307.2l256 153.6-256 153.6z"></path>
  </symbol>
</svg>
